<?xml version="1.0" encoding="UTF-8" standalone="no"?>
<!DOCTYPE svg PUBLIC "-//W3C//DTD SVG 1.1//EN"
 "http://www.w3.org/Graphics/SVG/1.1/DTD/svg11.dtd">
<!-- Generated by graphviz version 2.40.1 (20161225.0304)
 -->
<!-- Title: dependencies Pages: 1 -->
<svg width="504pt" height="284pt"
 viewBox="0.00 0.00 504.00 284.00" xmlns="http://www.w3.org/2000/svg" xmlns:xlink="http://www.w3.org/1999/xlink">
<g id="graph0" class="graph" transform="scale(1 1) rotate(0) translate(4 280)">
<title>dependencies</title>
<polygon fill="#ffffff" stroke="transparent" points="-4,4 -4,-280 500,-280 500,4 -4,4"/>
<text text-anchor="start" x="227.0091" y="-42.4" font-family="sans-serif" font-weight="bold" font-size="14.00" fill="#000000">Legend</text>
<polygon fill="#ffffb3" stroke="transparent" points="14,-10 14,-30 34,-30 34,-10 14,-10"/>
<text text-anchor="start" x="37.629" y="-15.4" font-family="sans-serif" font-size="14.00" fill="#000000"> &#160;Declarations</text>
<polygon fill="#8dd3c7" stroke="transparent" points="127,-10 127,-30 147,-30 147,-10 127,-10"/>
<text text-anchor="start" x="150.7251" y="-15.4" font-family="sans-serif" font-size="14.00" fill="#000000"> &#160;Module</text>
<polygon fill="#80b1d3" stroke="transparent" points="213,-10 213,-30 233,-30 233,-10 213,-10"/>
<text text-anchor="start" x="236.7812" y="-15.4" font-family="sans-serif" font-size="14.00" fill="#000000"> &#160;Bootstrap</text>
<polygon fill="#fdb462" stroke="transparent" points="310,-10 310,-30 330,-30 330,-10 310,-10"/>
<text text-anchor="start" x="333.6732" y="-15.4" font-family="sans-serif" font-size="14.00" fill="#000000"> &#160;Providers</text>
<polygon fill="#fb8072" stroke="transparent" points="406,-10 406,-30 426,-30 426,-10 406,-10"/>
<text text-anchor="start" x="429.7258" y="-15.4" font-family="sans-serif" font-size="14.00" fill="#000000"> &#160;Exports</text>
<g id="clust1" class="cluster">
<title>cluster_SparklinesModuleModule</title>
<polygon fill="none" stroke="#000000" stroke-dasharray="1,5" points="89,-70 89,-268 407,-268 407,-70 89,-70"/>
</g>
<g id="clust2" class="cluster">
<title>cluster_SparklinesModuleModule_declarations</title>
<polygon fill="none" stroke="#000000" points="243,-78 243,-130 399,-130 399,-78 243,-78"/>
</g>
<g id="clust4" class="cluster">
<title>cluster_SparklinesModuleModule_imports</title>
<polygon fill="none" stroke="#000000" points="97,-78 97,-130 235,-130 235,-78 97,-78"/>
</g>
<g id="clust5" class="cluster">
<title>cluster_SparklinesModuleModule_exports</title>
<polygon fill="none" stroke="#000000" points="168,-208 168,-260 328,-260 328,-208 168,-208"/>
</g>
<!-- SparklinesComponent -->
<g id="node1" class="node">
<title>SparklinesComponent</title>
<polygon fill="#ffffb3" stroke="#000000" points="391.4313,-122 250.5687,-122 250.5687,-86 391.4313,-86 391.4313,-122"/>
<text text-anchor="middle" x="321" y="-99.8" font-family="Times,serif" font-size="14.00" fill="#000000">SparklinesComponent</text>
</g>
<!-- SparklinesModuleModule -->
<g id="node2" class="node">
<title>SparklinesModuleModule</title>
<polygon fill="#8dd3c7" stroke="#000000" points="329.1979,-187 326.1979,-191 305.1979,-191 302.1979,-187 166.8021,-187 166.8021,-151 329.1979,-151 329.1979,-187"/>
<text text-anchor="middle" x="248" y="-164.8" font-family="Times,serif" font-size="14.00" fill="#000000">SparklinesModuleModule</text>
</g>
<!-- SparklinesComponent&#45;&gt;SparklinesModuleModule -->
<g id="edge1" class="edge">
<title>SparklinesComponent&#45;&gt;SparklinesModuleModule</title>
<path fill="none" stroke="#000000" d="M289.9418,-122.1061C289.9418,-122.1061 289.9418,-140.991 289.9418,-140.991"/>
<polygon fill="#000000" stroke="#000000" points="286.4419,-140.9909 289.9418,-150.991 293.4419,-140.991 286.4419,-140.9909"/>
</g>
<!-- SparklinesComponent  -->
<g id="node4" class="node">
<title>SparklinesComponent </title>
<polygon fill="#fb8072" stroke="#000000" points="319.9306,-252 176.0694,-252 176.0694,-216 319.9306,-216 319.9306,-252"/>
<text text-anchor="middle" x="248" y="-229.8" font-family="Times,serif" font-size="14.00" fill="#000000">SparklinesComponent </text>
</g>
<!-- SparklinesModuleModule&#45;&gt;SparklinesComponent  -->
<g id="edge3" class="edge">
<title>SparklinesModuleModule&#45;&gt;SparklinesComponent </title>
<path fill="none" stroke="#000000" stroke-dasharray="5,2" d="M248,-187.1061C248,-187.1061 248,-205.991 248,-205.991"/>
<polygon fill="#000000" stroke="#000000" points="244.5001,-205.9909 248,-215.991 251.5001,-205.991 244.5001,-205.9909"/>
</g>
<!-- NgMschartModule -->
<g id="node3" class="node">
<title>NgMschartModule</title>
<polygon fill="#8dd3c7" stroke="#000000" points="227.0269,-122 224.0269,-126 203.0269,-126 200.0269,-122 104.9731,-122 104.9731,-86 227.0269,-86 227.0269,-122"/>
<text text-anchor="middle" x="166" y="-99.8" font-family="Times,serif" font-size="14.00" fill="#000000">NgMschartModule</text>
</g>
<!-- NgMschartModule&#45;&gt;SparklinesModuleModule -->
<g id="edge2" class="edge">
<title>NgMschartModule&#45;&gt;SparklinesModuleModule</title>
<path fill="none" stroke="#000000" d="M197.0821,-122.1061C197.0821,-122.1061 197.0821,-140.991 197.0821,-140.991"/>
<polygon fill="#000000" stroke="#000000" points="193.5821,-140.9909 197.0821,-150.991 200.5821,-140.991 193.5821,-140.9909"/>
</g>
</g>
</svg>
