<?xml version="1.0" encoding="UTF-8" standalone="no"?>
<!DOCTYPE svg PUBLIC "-//W3C//DTD SVG 1.1//EN"
 "http://www.w3.org/Graphics/SVG/1.1/DTD/svg11.dtd">
<!-- Generated by graphviz version 2.40.1 (20161225.0304)
 -->
<!-- Title: dependencies Pages: 1 -->
<svg width="1168pt" height="290pt"
 viewBox="0.00 0.00 1168.00 290.00" xmlns="http://www.w3.org/2000/svg" xmlns:xlink="http://www.w3.org/1999/xlink">
<g id="graph0" class="graph" transform="scale(1 1) rotate(0) translate(4 286)">
<title>dependencies</title>
<polygon fill="#ffffff" stroke="transparent" points="-4,4 -4,-286 1164,-286 1164,4 -4,4"/>
<text text-anchor="start" x="559.0091" y="-42.4" font-family="sans-serif" font-weight="bold" font-size="14.00" fill="#000000">Legend</text>
<polygon fill="#ffffb3" stroke="transparent" points="346,-10 346,-30 366,-30 366,-10 346,-10"/>
<text text-anchor="start" x="369.629" y="-15.4" font-family="sans-serif" font-size="14.00" fill="#000000"> &#160;Declarations</text>
<polygon fill="#8dd3c7" stroke="transparent" points="459,-10 459,-30 479,-30 479,-10 459,-10"/>
<text text-anchor="start" x="482.7251" y="-15.4" font-family="sans-serif" font-size="14.00" fill="#000000"> &#160;Module</text>
<polygon fill="#80b1d3" stroke="transparent" points="545,-10 545,-30 565,-30 565,-10 545,-10"/>
<text text-anchor="start" x="568.7812" y="-15.4" font-family="sans-serif" font-size="14.00" fill="#000000"> &#160;Bootstrap</text>
<polygon fill="#fdb462" stroke="transparent" points="642,-10 642,-30 662,-30 662,-10 642,-10"/>
<text text-anchor="start" x="665.6732" y="-15.4" font-family="sans-serif" font-size="14.00" fill="#000000"> &#160;Providers</text>
<polygon fill="#fb8072" stroke="transparent" points="738,-10 738,-30 758,-30 758,-10 738,-10"/>
<text text-anchor="start" x="761.7258" y="-15.4" font-family="sans-serif" font-size="14.00" fill="#000000"> &#160;Exports</text>
<g id="clust1" class="cluster">
<title>cluster_AppModule</title>
<polygon fill="none" stroke="#000000" stroke-dasharray="1,5" points="8,-70 8,-274 796,-274 796,-70 8,-70"/>
</g>
<g id="clust2" class="cluster">
<title>cluster_AppModule_declarations</title>
<polygon fill="none" stroke="#000000" points="16,-78 16,-130 495,-130 495,-78 16,-78"/>
</g>
<g id="clust7" class="cluster">
<title>cluster_AppModule_imports</title>
<polygon fill="none" stroke="#000000" points="503,-78 503,-130 788,-130 788,-78 503,-78"/>
</g>
<g id="clust9" class="cluster">
<title>cluster_AppModule_bootstrap</title>
<polygon fill="none" stroke="#000000" points="308,-214 308,-266 432,-266 432,-214 308,-214"/>
</g>
<g id="clust17" class="cluster">
<title>cluster_NgMschartModule</title>
<polygon fill="none" stroke="#000000" stroke-dasharray="1,5" points="804,-138 804,-206 1152,-206 1152,-138 804,-138"/>
</g>
<g id="clust18" class="cluster">
<title>cluster_NgMschartModule_declarations</title>
<polygon fill="none" stroke="#000000" points="984,-146 984,-198 1144,-198 1144,-146 984,-146"/>
</g>
<g id="clust21" class="cluster">
<title>cluster_NgMschartModule_exports</title>
<polygon fill="none" stroke="#000000" points="812,-146 812,-198 976,-198 976,-146 812,-146"/>
</g>
<!-- AppComponent -->
<g id="node1" class="node">
<title>AppComponent</title>
<polygon fill="#ffffb3" stroke="#000000" points="486.9399,-122 381.0601,-122 381.0601,-86 486.9399,-86 486.9399,-122"/>
<text text-anchor="middle" x="434" y="-99.8" font-family="Times,serif" font-size="14.00" fill="#000000">AppComponent</text>
</g>
<!-- AppModule -->
<g id="node5" class="node">
<title>AppModule</title>
<polygon fill="#8dd3c7" stroke="#000000" points="411.6571,-190 408.6571,-194 387.6571,-194 384.6571,-190 328.3429,-190 328.3429,-154 411.6571,-154 411.6571,-190"/>
<text text-anchor="middle" x="370" y="-167.8" font-family="Times,serif" font-size="14.00" fill="#000000">AppModule</text>
</g>
<!-- AppComponent&#45;&gt;AppModule -->
<g id="edge1" class="edge">
<title>AppComponent&#45;&gt;AppModule</title>
<path fill="none" stroke="#000000" d="M396.5544,-122.2228C396.5544,-122.2228 396.5544,-143.7269 396.5544,-143.7269"/>
<polygon fill="#000000" stroke="#000000" points="393.0544,-143.7269 396.5544,-153.7269 400.0544,-143.727 393.0544,-143.7269"/>
</g>
<!-- BasicComponent -->
<g id="node2" class="node">
<title>BasicComponent</title>
<polygon fill="#ffffb3" stroke="#000000" points="363.4342,-122 250.5658,-122 250.5658,-86 363.4342,-86 363.4342,-122"/>
<text text-anchor="middle" x="307" y="-99.8" font-family="Times,serif" font-size="14.00" fill="#000000">BasicComponent</text>
</g>
<!-- BasicComponent&#45;&gt;AppModule -->
<g id="edge2" class="edge">
<title>BasicComponent&#45;&gt;AppModule</title>
<path fill="none" stroke="#000000" d="M345.6943,-122.2228C345.6943,-122.2228 345.6943,-143.7269 345.6943,-143.7269"/>
<polygon fill="#000000" stroke="#000000" points="342.1943,-143.7269 345.6943,-153.7269 349.1943,-143.727 342.1943,-143.7269"/>
</g>
<!-- BrushComponent -->
<g id="node3" class="node">
<title>BrushComponent</title>
<polygon fill="#ffffb3" stroke="#000000" points="232.2744,-122 117.7256,-122 117.7256,-86 232.2744,-86 232.2744,-122"/>
<text text-anchor="middle" x="175" y="-99.8" font-family="Times,serif" font-size="14.00" fill="#000000">BrushComponent</text>
</g>
<!-- BrushComponent&#45;&gt;AppModule -->
<g id="edge3" class="edge">
<title>BrushComponent&#45;&gt;AppModule</title>
<path fill="none" stroke="#000000" d="M175,-122.2667C175,-140.5552 175,-166 175,-166 175,-166 318.1676,-166 318.1676,-166"/>
<polygon fill="#000000" stroke="#000000" points="318.1676,-169.5001 328.1676,-166 318.1676,-162.5001 318.1676,-169.5001"/>
</g>
<!-- SeriesPipe -->
<g id="node4" class="node">
<title>SeriesPipe</title>
<polygon fill="#ffffb3" stroke="#000000" points="99.5955,-122 24.4045,-122 24.4045,-86 99.5955,-86 99.5955,-122"/>
<text text-anchor="middle" x="62" y="-99.8" font-family="Times,serif" font-size="14.00" fill="#000000">SeriesPipe</text>
</g>
<!-- SeriesPipe&#45;&gt;AppModule -->
<g id="edge4" class="edge">
<title>SeriesPipe&#45;&gt;AppModule</title>
<path fill="none" stroke="#000000" d="M62,-122.2921C62,-144.2057 62,-178 62,-178 62,-178 318.1412,-178 318.1412,-178"/>
<polygon fill="#000000" stroke="#000000" points="318.1412,-181.5001 328.1412,-178 318.1412,-174.5001 318.1412,-181.5001"/>
</g>
<!-- AppComponent  -->
<g id="node8" class="node">
<title>AppComponent </title>
<polygon fill="#80b1d3" stroke="#000000" points="424.439,-258 315.561,-258 315.561,-222 424.439,-222 424.439,-258"/>
<text text-anchor="middle" x="370" y="-235.8" font-family="Times,serif" font-size="14.00" fill="#000000">AppComponent </text>
</g>
<!-- AppModule&#45;&gt;AppComponent  -->
<g id="edge7" class="edge">
<title>AppModule&#45;&gt;AppComponent </title>
<path fill="none" stroke="#000000" stroke-dasharray="1,5" d="M370,-190.2228C370,-190.2228 370,-211.7269 370,-211.7269"/>
<polygon fill="#000000" stroke="#000000" points="366.5001,-211.7269 370,-221.7269 373.5001,-211.727 366.5001,-211.7269"/>
</g>
<!-- AppRoutingModule -->
<g id="node6" class="node">
<title>AppRoutingModule</title>
<polygon fill="#8dd3c7" stroke="#000000" points="639.2744,-122 636.2744,-126 615.2744,-126 612.2744,-122 510.7256,-122 510.7256,-86 639.2744,-86 639.2744,-122"/>
<text text-anchor="middle" x="575" y="-99.8" font-family="Times,serif" font-size="14.00" fill="#000000">AppRoutingModule</text>
</g>
<!-- AppRoutingModule&#45;&gt;AppModule -->
<g id="edge5" class="edge">
<title>AppRoutingModule&#45;&gt;AppModule</title>
<path fill="none" stroke="#000000" d="M575,-122.0225C575,-139.3734 575,-163 575,-163 575,-163 421.9795,-163 421.9795,-163"/>
<polygon fill="#000000" stroke="#000000" points="421.9795,-159.5001 411.9795,-163 421.9795,-166.5001 421.9795,-159.5001"/>
</g>
<!-- NgMschartModule -->
<g id="node7" class="node">
<title>NgMschartModule</title>
<polygon fill="#8dd3c7" stroke="#000000" points="780.0269,-122 777.0269,-126 756.0269,-126 753.0269,-122 657.9731,-122 657.9731,-86 780.0269,-86 780.0269,-122"/>
<text text-anchor="middle" x="719" y="-99.8" font-family="Times,serif" font-size="14.00" fill="#000000">NgMschartModule</text>
</g>
<!-- NgMschartModule&#45;&gt;AppModule -->
<g id="edge6" class="edge">
<title>NgMschartModule&#45;&gt;AppModule</title>
<path fill="none" stroke="#000000" d="M698.579,-122.2228C698.579,-142.3652 698.579,-172 698.579,-172 698.579,-172 421.9485,-172 421.9485,-172"/>
<polygon fill="#000000" stroke="#000000" points="421.9485,-168.5001 411.9485,-172 421.9485,-175.5001 421.9485,-168.5001"/>
</g>
<!-- NgMschartComponent  -->
<g id="node10" class="node">
<title>NgMschartComponent </title>
<polygon fill="#fb8072" stroke="#000000" points="967.8087,-190 820.1913,-190 820.1913,-154 967.8087,-154 967.8087,-190"/>
<text text-anchor="middle" x="894" y="-167.8" font-family="Times,serif" font-size="14.00" fill="#000000">NgMschartComponent </text>
</g>
<!-- NgMschartModule&#45;&gt;NgMschartComponent  -->
<g id="edge9" class="edge">
<title>NgMschartModule&#45;&gt;NgMschartComponent </title>
<path fill="none" stroke="#000000" stroke-dasharray="5,2" d="M739.421,-122.2479C739.421,-145.0179 739.421,-181 739.421,-181 739.421,-181 809.8798,-181 809.8798,-181"/>
<polygon fill="#000000" stroke="#000000" points="809.8798,-184.5001 819.8798,-181 809.8798,-177.5001 809.8798,-184.5001"/>
</g>
<!-- NgMschartComponent -->
<g id="node9" class="node">
<title>NgMschartComponent</title>
<polygon fill="#ffffb3" stroke="#000000" points="1136.3089,-190 991.6911,-190 991.6911,-154 1136.3089,-154 1136.3089,-190"/>
<text text-anchor="middle" x="1064" y="-167.8" font-family="Times,serif" font-size="14.00" fill="#000000">NgMschartComponent</text>
</g>
<!-- NgMschartComponent&#45;&gt;NgMschartModule -->
<g id="edge8" class="edge">
<title>NgMschartComponent&#45;&gt;NgMschartModule</title>
<path fill="none" stroke="#000000" d="M1064,-153.7772C1064,-133.6348 1064,-104 1064,-104 1064,-104 790.2815,-104 790.2815,-104"/>
<polygon fill="#000000" stroke="#000000" points="790.2816,-100.5001 780.2815,-104 790.2815,-107.5001 790.2816,-100.5001"/>
</g>
</g>
</svg>
