<?xml version="1.0" encoding="UTF-8" standalone="no"?>
<!DOCTYPE svg PUBLIC "-//W3C//DTD SVG 1.1//EN"
 "http://www.w3.org/Graphics/SVG/1.1/DTD/svg11.dtd">
<!-- Generated by graphviz version 2.40.1 (20161225.0304)
 -->
<!-- Title: dependencies Pages: 1 -->
<svg width="812pt" height="284pt"
 viewBox="0.00 0.00 812.00 284.00" xmlns="http://www.w3.org/2000/svg" xmlns:xlink="http://www.w3.org/1999/xlink">
<g id="graph0" class="graph" transform="scale(1 1) rotate(0) translate(4 280)">
<title>dependencies</title>
<polygon fill="#ffffff" stroke="transparent" points="-4,4 -4,-280 808,-280 808,4 -4,4"/>
<text text-anchor="start" x="381.0091" y="-42.4" font-family="sans-serif" font-weight="bold" font-size="14.00" fill="#000000">Legend</text>
<polygon fill="#ffffb3" stroke="transparent" points="168,-10 168,-30 188,-30 188,-10 168,-10"/>
<text text-anchor="start" x="191.629" y="-15.4" font-family="sans-serif" font-size="14.00" fill="#000000"> &#160;Declarations</text>
<polygon fill="#8dd3c7" stroke="transparent" points="281,-10 281,-30 301,-30 301,-10 281,-10"/>
<text text-anchor="start" x="304.7251" y="-15.4" font-family="sans-serif" font-size="14.00" fill="#000000"> &#160;Module</text>
<polygon fill="#80b1d3" stroke="transparent" points="367,-10 367,-30 387,-30 387,-10 367,-10"/>
<text text-anchor="start" x="390.7812" y="-15.4" font-family="sans-serif" font-size="14.00" fill="#000000"> &#160;Bootstrap</text>
<polygon fill="#fdb462" stroke="transparent" points="464,-10 464,-30 484,-30 484,-10 464,-10"/>
<text text-anchor="start" x="487.6732" y="-15.4" font-family="sans-serif" font-size="14.00" fill="#000000"> &#160;Providers</text>
<polygon fill="#fb8072" stroke="transparent" points="560,-10 560,-30 580,-30 580,-10 560,-10"/>
<text text-anchor="start" x="583.7258" y="-15.4" font-family="sans-serif" font-size="14.00" fill="#000000"> &#160;Exports</text>
<g id="clust1" class="cluster">
<title>cluster_AppModule</title>
<polygon fill="none" stroke="#000000" stroke-dasharray="1,5" points="8,-70 8,-268 796,-268 796,-70 8,-70"/>
</g>
<g id="clust2" class="cluster">
<title>cluster_AppModule_declarations</title>
<polygon fill="none" stroke="#000000" points="309,-78 309,-130 788,-130 788,-78 309,-78"/>
</g>
<g id="clust7" class="cluster">
<title>cluster_AppModule_imports</title>
<polygon fill="none" stroke="#000000" points="16,-78 16,-130 301,-130 301,-78 16,-78"/>
</g>
<g id="clust9" class="cluster">
<title>cluster_AppModule_bootstrap</title>
<polygon fill="none" stroke="#000000" points="349,-208 349,-260 473,-260 473,-208 349,-208"/>
</g>
<!-- AppComponent -->
<g id="node1" class="node">
<title>AppComponent</title>
<polygon fill="#ffffb3" stroke="#000000" points="779.9399,-122 674.0601,-122 674.0601,-86 779.9399,-86 779.9399,-122"/>
<text text-anchor="middle" x="727" y="-99.8" font-family="Times,serif" font-size="14.00" fill="#000000">AppComponent</text>
</g>
<!-- AppModule -->
<g id="node5" class="node">
<title>AppModule</title>
<polygon fill="#8dd3c7" stroke="#000000" points="452.6571,-187 449.6571,-191 428.6571,-191 425.6571,-187 369.3429,-187 369.3429,-151 452.6571,-151 452.6571,-187"/>
<text text-anchor="middle" x="411" y="-164.8" font-family="Times,serif" font-size="14.00" fill="#000000">AppModule</text>
</g>
<!-- AppComponent&#45;&gt;AppModule -->
<g id="edge1" class="edge">
<title>AppComponent&#45;&gt;AppModule</title>
<path fill="none" stroke="#000000" d="M727,-122.2843C727,-143.3211 727,-175 727,-175 727,-175 462.9624,-175 462.9624,-175"/>
<polygon fill="#000000" stroke="#000000" points="462.9624,-171.5001 452.9624,-175 462.9623,-178.5001 462.9624,-171.5001"/>
</g>
<!-- BasicComponent -->
<g id="node2" class="node">
<title>BasicComponent</title>
<polygon fill="#ffffb3" stroke="#000000" points="656.4342,-122 543.5658,-122 543.5658,-86 656.4342,-86 656.4342,-122"/>
<text text-anchor="middle" x="600" y="-99.8" font-family="Times,serif" font-size="14.00" fill="#000000">BasicComponent</text>
</g>
<!-- BasicComponent&#45;&gt;AppModule -->
<g id="edge2" class="edge">
<title>BasicComponent&#45;&gt;AppModule</title>
<path fill="none" stroke="#000000" d="M600,-122.0225C600,-139.3734 600,-163 600,-163 600,-163 462.9452,-163 462.9452,-163"/>
<polygon fill="#000000" stroke="#000000" points="462.9453,-159.5001 452.9452,-163 462.9452,-166.5001 462.9453,-159.5001"/>
</g>
<!-- BrushComponent -->
<g id="node3" class="node">
<title>BrushComponent</title>
<polygon fill="#ffffb3" stroke="#000000" points="525.2744,-122 410.7256,-122 410.7256,-86 525.2744,-86 525.2744,-122"/>
<text text-anchor="middle" x="468" y="-99.8" font-family="Times,serif" font-size="14.00" fill="#000000">BrushComponent</text>
</g>
<!-- BrushComponent&#45;&gt;AppModule -->
<g id="edge3" class="edge">
<title>BrushComponent&#45;&gt;AppModule</title>
<path fill="none" stroke="#000000" d="M431.7206,-122.1061C431.7206,-122.1061 431.7206,-140.991 431.7206,-140.991"/>
<polygon fill="#000000" stroke="#000000" points="428.2206,-140.9909 431.7206,-150.991 435.2206,-140.991 428.2206,-140.9909"/>
</g>
<!-- SeriesPipe -->
<g id="node4" class="node">
<title>SeriesPipe</title>
<polygon fill="#ffffb3" stroke="#000000" points="392.5955,-122 317.4045,-122 317.4045,-86 392.5955,-86 392.5955,-122"/>
<text text-anchor="middle" x="355" y="-99.8" font-family="Times,serif" font-size="14.00" fill="#000000">SeriesPipe</text>
</g>
<!-- SeriesPipe&#45;&gt;AppModule -->
<g id="edge4" class="edge">
<title>SeriesPipe&#45;&gt;AppModule</title>
<path fill="none" stroke="#000000" d="M380.8597,-122.1061C380.8597,-122.1061 380.8597,-140.991 380.8597,-140.991"/>
<polygon fill="#000000" stroke="#000000" points="377.3598,-140.9909 380.8597,-150.991 384.3598,-140.991 377.3598,-140.9909"/>
</g>
<!-- AppComponent  -->
<g id="node8" class="node">
<title>AppComponent </title>
<polygon fill="#80b1d3" stroke="#000000" points="465.439,-252 356.561,-252 356.561,-216 465.439,-216 465.439,-252"/>
<text text-anchor="middle" x="411" y="-229.8" font-family="Times,serif" font-size="14.00" fill="#000000">AppComponent </text>
</g>
<!-- AppModule&#45;&gt;AppComponent  -->
<g id="edge7" class="edge">
<title>AppModule&#45;&gt;AppComponent </title>
<path fill="none" stroke="#000000" stroke-dasharray="1,5" d="M411,-187.1061C411,-187.1061 411,-205.991 411,-205.991"/>
<polygon fill="#000000" stroke="#000000" points="407.5001,-205.9909 411,-215.991 414.5001,-205.991 407.5001,-205.9909"/>
</g>
<!-- AppRoutingModule -->
<g id="node6" class="node">
<title>AppRoutingModule</title>
<polygon fill="#8dd3c7" stroke="#000000" points="293.2744,-122 290.2744,-126 269.2744,-126 266.2744,-122 164.7256,-122 164.7256,-86 293.2744,-86 293.2744,-122"/>
<text text-anchor="middle" x="229" y="-99.8" font-family="Times,serif" font-size="14.00" fill="#000000">AppRoutingModule</text>
</g>
<!-- AppRoutingModule&#45;&gt;AppModule -->
<g id="edge5" class="edge">
<title>AppRoutingModule&#45;&gt;AppModule</title>
<path fill="none" stroke="#000000" d="M229,-122.0225C229,-139.3734 229,-163 229,-163 229,-163 359.2455,-163 359.2455,-163"/>
<polygon fill="#000000" stroke="#000000" points="359.2456,-166.5001 369.2455,-163 359.2455,-159.5001 359.2456,-166.5001"/>
</g>
<!-- NgMschartModule -->
<g id="node7" class="node">
<title>NgMschartModule</title>
<polygon fill="#8dd3c7" stroke="#000000" points="146.0269,-122 143.0269,-126 122.0269,-126 119.0269,-122 23.9731,-122 23.9731,-86 146.0269,-86 146.0269,-122"/>
<text text-anchor="middle" x="85" y="-99.8" font-family="Times,serif" font-size="14.00" fill="#000000">NgMschartModule</text>
</g>
<!-- NgMschartModule&#45;&gt;AppModule -->
<g id="edge6" class="edge">
<title>NgMschartModule&#45;&gt;AppModule</title>
<path fill="none" stroke="#000000" d="M85,-122.2843C85,-143.3211 85,-175 85,-175 85,-175 359.0486,-175 359.0486,-175"/>
<polygon fill="#000000" stroke="#000000" points="359.0486,-178.5001 369.0486,-175 359.0486,-171.5001 359.0486,-178.5001"/>
</g>
</g>
</svg>
