<?xml version="1.0" encoding="UTF-8" standalone="no"?>
<!DOCTYPE svg PUBLIC "-//W3C//DTD SVG 1.1//EN"
 "http://www.w3.org/Graphics/SVG/1.1/DTD/svg11.dtd">
<!-- Generated by graphviz version 2.40.1 (20161225.0304)
 -->
<!-- Title: dependencies Pages: 1 -->
<svg width="848pt" height="211pt"
 viewBox="0.00 0.00 848.00 211.00" xmlns="http://www.w3.org/2000/svg" xmlns:xlink="http://www.w3.org/1999/xlink">
<g id="graph0" class="graph" transform="scale(1 1) rotate(0) translate(4 207)">
<title>dependencies</title>
<polygon fill="#ffffff" stroke="transparent" points="-4,4 -4,-207 844,-207 844,4 -4,4"/>
<text text-anchor="start" x="399.0091" y="-42.4" font-family="sans-serif" font-weight="bold" font-size="14.00" fill="#000000">Legend</text>
<polygon fill="#ffffb3" stroke="transparent" points="186,-10 186,-30 206,-30 206,-10 186,-10"/>
<text text-anchor="start" x="209.629" y="-15.4" font-family="sans-serif" font-size="14.00" fill="#000000"> &#160;Declarations</text>
<polygon fill="#8dd3c7" stroke="transparent" points="299,-10 299,-30 319,-30 319,-10 299,-10"/>
<text text-anchor="start" x="322.7251" y="-15.4" font-family="sans-serif" font-size="14.00" fill="#000000"> &#160;Module</text>
<polygon fill="#80b1d3" stroke="transparent" points="385,-10 385,-30 405,-30 405,-10 385,-10"/>
<text text-anchor="start" x="408.7812" y="-15.4" font-family="sans-serif" font-size="14.00" fill="#000000"> &#160;Bootstrap</text>
<polygon fill="#fdb462" stroke="transparent" points="482,-10 482,-30 502,-30 502,-10 482,-10"/>
<text text-anchor="start" x="505.6732" y="-15.4" font-family="sans-serif" font-size="14.00" fill="#000000"> &#160;Providers</text>
<polygon fill="#fb8072" stroke="transparent" points="578,-10 578,-30 598,-30 598,-10 578,-10"/>
<text text-anchor="start" x="601.7258" y="-15.4" font-family="sans-serif" font-size="14.00" fill="#000000"> &#160;Exports</text>
<g id="clust1" class="cluster">
<title>cluster_DashboardsModuleModule</title>
<polygon fill="none" stroke="#000000" stroke-dasharray="1,5" points="8,-70 8,-195 832,-195 832,-70 8,-70"/>
</g>
<g id="clust2" class="cluster">
<title>cluster_DashboardsModuleModule_declarations</title>
<polygon fill="none" stroke="#000000" points="16,-78 16,-130 824,-130 824,-78 16,-78"/>
</g>
<!-- DarkDashboardComponent -->
<g id="node1" class="node">
<title>DarkDashboardComponent</title>
<polygon fill="#ffffb3" stroke="#000000" points="815.9552,-122 646.0448,-122 646.0448,-86 815.9552,-86 815.9552,-122"/>
<text text-anchor="middle" x="731" y="-99.8" font-family="Times,serif" font-size="14.00" fill="#000000">DarkDashboardComponent</text>
</g>
<!-- DashboardsModuleModule -->
<g id="node5" class="node">
<title>DashboardsModuleModule</title>
<polygon fill="#8dd3c7" stroke="#000000" points="514.6853,-187 511.6853,-191 490.6853,-191 487.6853,-187 345.3147,-187 345.3147,-151 514.6853,-151 514.6853,-187"/>
<text text-anchor="middle" x="430" y="-164.8" font-family="Times,serif" font-size="14.00" fill="#000000">DashboardsModuleModule</text>
</g>
<!-- DarkDashboardComponent&#45;&gt;DashboardsModuleModule -->
<g id="edge1" class="edge">
<title>DarkDashboardComponent&#45;&gt;DashboardsModuleModule</title>
<path fill="none" stroke="#000000" d="M731,-122.1061C731,-141.3391 731,-169 731,-169 731,-169 524.6463,-169 524.6463,-169"/>
<polygon fill="#000000" stroke="#000000" points="524.6463,-165.5001 514.6463,-169 524.6463,-172.5001 524.6463,-165.5001"/>
</g>
<!-- MaterialDashboardComponent -->
<g id="node2" class="node">
<title>MaterialDashboardComponent</title>
<polygon fill="#ffffb3" stroke="#000000" points="627.8946,-122 438.1054,-122 438.1054,-86 627.8946,-86 627.8946,-122"/>
<text text-anchor="middle" x="533" y="-99.8" font-family="Times,serif" font-size="14.00" fill="#000000">MaterialDashboardComponent</text>
</g>
<!-- MaterialDashboardComponent&#45;&gt;DashboardsModuleModule -->
<g id="edge2" class="edge">
<title>MaterialDashboardComponent&#45;&gt;DashboardsModuleModule</title>
<path fill="none" stroke="#000000" d="M476.4478,-122.1061C476.4478,-122.1061 476.4478,-140.991 476.4478,-140.991"/>
<polygon fill="#000000" stroke="#000000" points="472.9478,-140.9909 476.4478,-150.991 479.9478,-140.991 472.9478,-140.9909"/>
</g>
<!-- ModernDashboardComponent -->
<g id="node3" class="node">
<title>ModernDashboardComponent</title>
<polygon fill="#ffffb3" stroke="#000000" points="420.2934,-122 233.7066,-122 233.7066,-86 420.2934,-86 420.2934,-122"/>
<text text-anchor="middle" x="327" y="-99.8" font-family="Times,serif" font-size="14.00" fill="#000000">ModernDashboardComponent</text>
</g>
<!-- ModernDashboardComponent&#45;&gt;DashboardsModuleModule -->
<g id="edge3" class="edge">
<title>ModernDashboardComponent&#45;&gt;DashboardsModuleModule</title>
<path fill="none" stroke="#000000" d="M382.777,-122.1061C382.777,-122.1061 382.777,-140.991 382.777,-140.991"/>
<polygon fill="#000000" stroke="#000000" points="379.2771,-140.9909 382.777,-150.991 386.2771,-140.991 379.2771,-140.9909"/>
</g>
<!-- RealtimeDashboardComponent -->
<g id="node4" class="node">
<title>RealtimeDashboardComponent</title>
<polygon fill="#ffffb3" stroke="#000000" points="216.0168,-122 23.9832,-122 23.9832,-86 216.0168,-86 216.0168,-122"/>
<text text-anchor="middle" x="120" y="-99.8" font-family="Times,serif" font-size="14.00" fill="#000000">RealtimeDashboardComponent</text>
</g>
<!-- RealtimeDashboardComponent&#45;&gt;DashboardsModuleModule -->
<g id="edge4" class="edge">
<title>RealtimeDashboardComponent&#45;&gt;DashboardsModuleModule</title>
<path fill="none" stroke="#000000" d="M120,-122.1061C120,-141.3391 120,-169 120,-169 120,-169 335.2911,-169 335.2911,-169"/>
<polygon fill="#000000" stroke="#000000" points="335.2912,-172.5001 345.2911,-169 335.2911,-165.5001 335.2912,-172.5001"/>
</g>
</g>
</svg>
